<svg xmlns="http://www.w3.org/2000/svg" class="cb-banner" viewBox="0 0 700 190" role="img" aria-labelledby="banner-title-5"><title id="banner-title-5">The Cannabis Journal Method: How to Track What Actually Works for You — original Cannabis Basics illustration</title><style>.cb-orbit{transform-box:fill-box;transform-origin:center;animation:float 7s ease-in-out infinite}.cb-trace{stroke-dasharray:10 5;animation:trace 20s linear infinite}@keyframes float{50%{transform:translateY(-7px) rotate(9deg)}}@keyframes trace{to{stroke-dashoffset:-180}}@media(prefers-reduced-motion:reduce){*{animation:none!important}}</style><defs><linearGradient id="bg5" x2="1" y2="1"><stop stop-color="#102b20"/><stop offset="1" stop-color="#263d35"/></linearGradient></defs><rect width="700" height="190" rx="24" fill="url(#bg5)"/><path class="cb-trace" d="M0 136 Q170 35 340 115 T700 80" fill="none" stroke="#c3cf32" stroke-width="2" opacity=".6"/><g fill="none" stroke="#b8d876" stroke-width="2"><g class="cb-orbit" style="animation-delay:-5s"><rect x="23" y="18" width="34" height="34" rx="5" transform="rotate(15 40 35)"/></g><g class="cb-orbit" style="animation-delay:-6s"><rect x="116" y="46" width="36" height="36" rx="6" transform="rotate(20 134 64)"/></g><g class="cb-orbit" style="animation-delay:-7s"><rect x="209" y="83" width="38" height="38" rx="7" transform="rotate(25 228 102)"/></g><g class="cb-orbit" style="animation-delay:-8s"><rect x="302" y="96" width="40" height="40" rx="8" transform="rotate(30 322 116)"/></g><g class="cb-orbit" style="animation-delay:-9s"><rect x="395" y="71" width="42" height="42" rx="9" transform="rotate(35 416 92)"/></g><g class="cb-orbit" style="animation-delay:-10s"><rect x="488" y="31" width="44" height="44" rx="10" transform="rotate(40 510 53)"/></g><g class="cb-orbit" style="animation-delay:-11s"><rect x="581" y="11" width="46" height="46" rx="11" transform="rotate(45 604 34)"/></g></g><text x="30" y="169" fill="#d8e5b9" font-family="Georgia,serif" font-size="13">CANNABIS BASICS / LEARN · TRACK · UNDERSTAND / 06</text></svg>